<svg width="133" height="100" viewBox="0 0 133 100" fill="none" xmlns="http://www.w3.org/2000/svg">
<path d="M70.3365 99.1362C68.1187 99.7125 66.1385 100.001 64.3959 100.001C62.7062 100.001 61.2012 99.8958 59.8811 99.6863C58.561 99.4767 57.1352 99.0576 55.6039 98.429C54.1253 97.8527 52.726 97.1717 51.4059 96.3858C50.0857 95.6 48.7656 94.6308 47.4455 93.4783C45.0164 91.5399 42.7986 89.4444 40.792 87.1917C38.8382 84.9391 35.0363 80.7218 29.3861 74.54C23.7359 68.3059 19.9868 64.1672 18.1386 62.1241C16.2904 60.0809 14.8647 59.007 13.8614 58.9022V58.1164C16.9241 58.1164 18.9571 58.064 19.9604 57.9592C21.0165 57.8021 22.1254 57.5663 23.2871 57.252C24.4488 56.8853 25.4257 56.4138 26.2178 55.8375C29.3333 53.8468 30.891 50.5463 30.891 45.9362C30.891 42.1119 30.0198 39.0472 28.2772 36.7421C26.5874 34.437 24.1848 33.2583 21.0693 33.2059H11.2475V80.0408C11.2475 81.3505 11.7228 82.503 12.6732 83.4984C13.6765 84.4938 14.8911 84.9914 16.3168 84.9914H17.2673L17.3465 85.7773H0V84.9914H1.0297C2.34983 84.9914 3.51155 84.52 4.51485 83.577C5.51814 82.634 6.0462 81.4814 6.099 80.1194V36.5063C6.0462 35.1443 5.51814 33.9917 4.51485 33.0487C3.56435 32.0534 2.40264 31.5557 1.0297 31.5557H0V30.7699H21.3861C26.033 30.7699 29.7557 32.0796 32.5544 34.699C35.4059 37.266 36.8316 40.6974 36.8316 44.9932C36.8316 49.2366 35.5379 52.9038 32.9504 55.9947C30.363 59.0332 27.1947 60.5524 23.4455 60.5524C23.4455 60.5524 23.4191 60.5524 23.3663 60.5524C25.1617 62.4384 27.1947 64.6387 29.4653 67.1533C38.6006 77.1594 44.462 83.446 47.0494 86.013C49.6369 88.58 51.9075 90.6755 53.8613 92.2996C55.8679 93.976 57.6369 95.2071 59.1682 95.9929C62.2837 97.6693 65.3728 98.5076 68.4355 98.5076C69.0692 98.5076 69.7029 98.4552 70.3365 98.3504V99.1362Z" fill="#57663A"/>
<path d="M68.7684 2.12425C72.134 0.708491 75.3702 0.000610352 78.4769 0.000610352C81.0659 0.000610352 83.7325 0.970669 86.4768 2.91079C87.9783 3.9595 89.6612 6.00449 91.5252 9.04576C92.7679 11.1432 94.3471 14.9448 96.2629 20.4505L105.738 47.6646C107.913 53.7471 110.114 58.5712 112.34 62.1368C114.619 65.7549 116.69 68.4553 118.554 70.2381C120.418 72.0734 122.359 73.3581 124.379 74.0922C126.398 74.8263 128.055 75.1933 129.35 75.1933C130.696 75.1933 131.887 75.0884 132.922 74.8787L133 75.6652C130.515 76.5042 128.081 76.9237 125.699 76.9237C123.317 76.9237 120.936 76.2945 118.554 75.036C116.172 73.83 113.945 72.1258 111.874 69.9235C107.421 65.3616 103.641 58.4139 100.535 49.0804L97.5056 40.1139H76.2246L70.8655 54.1142C70.6066 54.7434 70.4771 55.3726 70.4771 56.0019C70.4771 56.6311 70.736 57.3128 71.2538 58.0469C71.8234 58.7285 72.6777 59.0694 73.8169 59.0694H74.4382V59.8559H58.8269V59.0694H59.5259C60.7686 59.0694 61.9854 58.7023 63.1763 57.9682C64.3672 57.1817 65.351 56.0281 66.1277 54.5075L85.3894 7.7873C82.5934 3.74976 79.1242 1.73099 74.9819 1.73099C73.1178 1.73099 71.1244 2.12425 69.0014 2.91079L68.7684 2.12425ZM77.0789 37.7543H96.729L90.5932 19.428C89.4023 15.9148 88.3149 13.162 87.3311 11.1694L77.0789 37.7543Z" fill="#57663A"/>
<path d="M71.8627 73.3294C69.9927 74.9479 67.9208 75.7572 65.6471 75.7572C64.0321 75.7572 62.279 75.3206 60.3877 74.4475C59.2402 73.8937 58.1777 73.2336 57.2002 72.4669C56.2227 71.7215 55.0221 70.7632 53.5983 69.5919C51.6646 70.8696 49.4865 71.5085 47.064 71.5085C45.8527 71.5085 44.6627 71.3382 43.494 70.9974C41.794 70.5289 40.3702 69.6983 39.2227 68.5057C38.0327 67.2705 37.4377 65.7691 37.4377 64.0015C37.4377 62.6386 37.7565 61.4566 38.394 60.4557C39.0527 59.4334 39.9559 58.6242 41.1034 58.0279C40.1896 56.6223 39.7327 55.1635 39.7327 53.6515C39.7327 52.1181 40.264 50.8403 41.3265 49.8181C42.389 48.7959 43.8765 48.2847 45.789 48.2847C48.2115 48.2847 50.0921 49.0408 51.4308 50.5528L50.9846 54.1626H50.6659C50.6021 52.6505 50.1452 51.4579 49.2952 50.5848C48.4452 49.6903 47.3721 49.2431 46.0759 49.2431C44.7796 49.2431 43.7596 49.6584 43.0159 50.4889C42.2721 51.2982 41.9002 52.3098 41.9002 53.5237C41.9002 54.8866 42.3252 56.1431 43.1752 57.2931C44.0465 58.4432 45.4702 59.8807 47.4465 61.6057C49.444 63.3307 51.8134 65.3539 54.5546 67.6752C55.7021 66.6316 56.6477 65.3965 57.3915 63.9696C58.4115 62.0742 58.9215 60.0084 58.9215 57.7723C58.9215 56.7075 58.794 55.6533 58.539 54.6098C58.1565 53.0126 57.3277 51.4579 56.0527 49.9459C54.7777 48.4338 53.1202 47.1454 51.0802 46.0806L51.2396 45.8889C53.0246 46.613 54.544 47.55 55.7977 48.7C58.4752 51.1491 59.814 54.2478 59.814 57.9959C59.814 60.3385 59.1871 62.6386 57.9333 64.896C57.2108 66.1738 56.329 67.3025 55.2877 68.2821L57.3277 69.9433C59.4952 71.6896 61.6627 72.9354 63.8302 73.6808C64.829 74.0215 65.9977 74.1919 67.3365 74.1919C68.6752 74.1919 70.1308 73.8086 71.7033 73.0419L71.8627 73.3294ZM42.5059 68.7932C44.0146 69.9433 45.7252 70.5183 47.6377 70.5183C49.4865 70.5183 51.229 70.0071 52.8652 68.9849C49.9115 66.5145 47.5209 64.4807 45.6934 62.8835C43.8659 61.2862 42.5165 59.9233 41.6452 58.7945C40.3702 59.9872 39.7327 61.6057 39.7327 63.6501C39.7327 65.6946 40.6571 67.409 42.5059 68.7932Z" fill="#956464"/>
</svg>
